<?xml version="1.0" encoding="utf-8"?>
<!-- Generator: Adobe Illustrator 14.0.0, SVG Export Plug-In . SVG Version: 6.00 Build 43363)  -->
<!DOCTYPE svg PUBLIC "-//W3C//DTD SVG 1.1//EN" "http://www.w3.org/Graphics/SVG/1.1/DTD/svg11.dtd">
<svg version="1.1" id="Livello_1" xmlns="http://www.w3.org/2000/svg" xmlns:xlink="http://www.w3.org/1999/xlink" x="0px" y="0px"
	 width="50px" height="50px" viewBox="0 0 50 50" enable-background="new 0 0 50 50" xml:space="preserve">
<g id="object1">
	<path fill="#D68BB7" stroke="#000000" d="M17.49,33.4c-3.953-0.582-14.441-2.506-15.434-9.169c0,0-4.029-15.416,20.494-15.416
		h4.431c24.526,0,20.498,15.416,20.498,15.416c-1.228,8.233-16.939,9.331-16.939,9.331l-0.233,0.205c0,0-0.228,0.432-0.533,1.131
		c-0.103,0.178-0.181,0.363-0.235,0.555c-1.34,3.283-3.354,10.24,3.603,10.441c0,0-4.385,2.699-11.467-8.545
		c-0.248-0.514-0.545-1.016-0.896-1.473c-0.015-0.039-0.67-1.012-1.435-1.76C19.344,34.117,18.801,33.592,17.49,33.4z"/>
	<circle fill="#FFFFFF" stroke="#000000" cx="41.053" cy="9.676" r="7.332"/>
	<circle fill="#010101" stroke="#000000" cx="41.053" cy="6.174" r="3.873"/>
	<path fill="#D68BB7" stroke="#000000" d="M48.383,9.676c0,0-5.55,4.062-14.386,1.979c0,0,1.75,5.601,7.056,5.353
		C41.053,17.008,47.781,16.961,48.383,9.676z"/>
	<circle fill="#FFFFFF" stroke="#000000" cx="8.377" cy="9.676" r="7.332"/>
	<circle fill="#010101" stroke="#000000" cx="8.377" cy="6.174" r="3.873"/>
	<path fill="#D68BB7" stroke="#000000" d="M1.047,9.676c0,0,5.551,4.062,14.389,1.979c0,0-1.752,5.601-7.057,5.353
		C8.377,17.008,1.65,16.961,1.047,9.676z"/>
	<line fill="none" stroke="#000000" x1="29.654" y1="11.693" x2="28.66" y2="10.379"/>
	<line fill="none" stroke="#000000" x1="20.252" y1="11.693" x2="21.244" y2="10.379"/>
</g>
<g id="object2">
	<path fill="#D68BB7" stroke="#000000" d="M30.014,33.752c-4.74,3.77-5.475,17.047-5.475,17.047
		c-0.232-16.117-5.547-17.236-5.547-17.236S3.283,32.465,2.057,24.231c0,0-4.031-15.416,20.494-15.416h4.431
		c24.526,0,20.496,15.416,20.496,15.416c-1.042,7.007-12.576,8.845-15.989,9.237L30.014,33.752z"/>
	<circle fill="#FFFFFF" stroke="#000000" cx="41.053" cy="9.677" r="7.331"/>
	<circle fill="#010101" stroke="#000000" cx="41.053" cy="6.174" r="3.873"/>
	<path fill="#D68BB7" stroke="#000000" d="M48.383,9.676c0,0-5.55,4.062-14.385,1.981c0,0,1.75,5.601,7.055,5.351
		C41.053,17.008,47.782,16.961,48.383,9.676z"/>
	<circle fill="#FFFFFF" stroke="#000000" cx="8.379" cy="9.677" r="7.331"/>
	<circle fill="#010101" stroke="#000000" cx="8.379" cy="6.174" r="3.873"/>
	<path fill="#D68BB7" stroke="#000000" d="M1.047,9.676c0,0,5.551,4.062,14.387,1.981c0,0-1.75,5.601-7.055,5.351
		C8.379,17.008,1.65,16.961,1.047,9.676z"/>
	<line fill="none" stroke="#000000" x1="29.654" y1="11.693" x2="28.66" y2="10.379"/>
	<line fill="none" stroke="#000000" x1="20.252" y1="11.693" x2="21.244" y2="10.379"/>
</g>
<g id="object3">
	<path fill="#D68BB7" stroke="#000000" d="M32.047,33.4c3.95-0.582,14.442-2.506,15.435-9.169c0,0,4.028-15.416-20.498-15.416
		h-4.429c-24.526,0-20.498,15.416-20.498,15.416c1.228,8.233,16.938,9.331,16.938,9.331l0.234,0.205c0,0,0.227,0.432,0.534,1.131
		c0.103,0.178,0.179,0.363,0.234,0.555c1.34,3.283,3.352,10.24-3.604,10.441c0,0,4.387,2.699,11.468-8.545
		c0.248-0.514,0.545-1.016,0.896-1.473c0.016-0.039,0.671-1.012,1.433-1.76C30.192,34.117,30.735,33.592,32.047,33.4z"/>
	<circle fill="#FFFFFF" stroke="#000000" cx="41.053" cy="9.676" r="7.332"/>
	<circle fill="#010101" stroke="#000000" cx="41.053" cy="6.174" r="3.873"/>
	<path fill="#D68BB7" stroke="#000000" d="M48.385,9.676c0,0-5.551,4.062-14.387,1.979c0,0,1.75,5.601,7.055,5.353
		C41.053,17.008,47.782,16.961,48.385,9.676z"/>
	<circle fill="#FFFFFF" stroke="#000000" cx="8.379" cy="9.676" r="7.332"/>
	<circle fill="#010101" stroke="#000000" cx="8.379" cy="6.174" r="3.873"/>
	<path fill="#D68BB7" stroke="#000000" d="M1.047,9.676c0,0,5.553,4.062,14.389,1.979c0,0-1.752,5.601-7.055,5.353
		C8.379,17.008,1.65,16.961,1.047,9.676z"/>
	<line fill="none" stroke="#000000" x1="29.655" y1="11.693" x2="28.661" y2="10.379"/>
	<line fill="none" stroke="#000000" x1="20.252" y1="11.693" x2="21.244" y2="10.379"/>
</g>
<rect id="outline" x="1" y="2" fill="none" width="47.406" height="50.918"/>
</svg>
