<?xml version="1.0" encoding="utf-8"?>
<!-- Generator: Adobe Illustrator 14.0.0, SVG Export Plug-In . SVG Version: 6.00 Build 43363)  -->
<!DOCTYPE svg PUBLIC "-//W3C//DTD SVG 1.1//EN" "http://www.w3.org/Graphics/SVG/1.1/DTD/svg11.dtd">
<svg version="1.1" id="Livello1" xmlns="http://www.w3.org/2000/svg" xmlns:xlink="http://www.w3.org/1999/xlink" x="0px" y="0px"
	 width="50px" height="50px" viewBox="0 0 50 50" enable-background="new 0 0 50 50" xml:space="preserve">
<g id="object1">
	<path fill="#DA3D4E" stroke="#000000" d="M20.175,9.86C9.95,6.491,17.447,0.589,17.447,0.589
		c-9.33,4.506,0.204,12.775,0.204,12.775s1.312,1.293,2.146,0.948c0.834-0.347,2.389-4.132,2.389-4.132L20.175,9.86"/>
	<path fill="#DA3D4E" stroke="#000000" d="M29.77,9.829c10.226-3.366,2.729-9.27,2.729-9.27c9.329,4.506-0.207,12.774-0.207,12.774
		l-1.686,1.017l-2.603-4.4L29.77,9.829"/>
	<path fill="#5F8960" stroke="#000000" d="M36.277,38.994c0,0,7.948-1.645,11.309,9.199c0,0-5.383-13.752-8.884-15.525"/>
	<path fill="#5F8960" stroke="#000000" d="M38.977,25.319c0,0,3.796-11.484,11.264-9.907c0,0-10.123-0.506-13.067,3.163"/>
	<path fill="#5F8960" stroke="#000000" d="M11.023,25.322c0,0-3.795-11.488-11.269-9.91c0,0,10.125-0.506,13.067,3.163"/>
	<path fill="#5F8960" stroke="#000000" d="M13.723,38.997c0,0-7.948-1.647-11.312,9.2c0,0,5.382-13.754,8.883-15.529"/>
	<ellipse fill="#36962A" stroke="#000000" cx="25" cy="26.878" rx="14.961" ry="17.783"/>
	<path fill="#DBD62E" stroke="#000000" d="M18.885,19.378c3.383-4.247,8.854-4.247,12.23,0c3.371,4.247,3.371,11.138,0,15.382
		c-3.379,4.246-8.852,4.246-12.23,0C15.511,30.516,15.511,23.625,18.885,19.378z"/>
	<path fill="#010101" stroke="#000000" d="M22.384,23.778c1.445-1.819,3.787-1.819,5.232,0c1.447,1.818,1.447,4.761,0,6.583
		c-1.445,1.82-3.788,1.82-5.232,0C20.937,28.542,20.937,25.6,22.384,23.778z"/>
	<path fill="#5F8960" stroke="#000000" d="M16.458,26.791c0,0,0.02,10.039,8.42,10.879c0,0,8.414,0.391,8.766-10.879H16.458z"/>
	<path fill="#5F8960" stroke="#000000" d="M33.639,26.688c0,0-0.021-10.042-8.427-10.875c0,0-8.415-0.392-8.759,10.875
		C16.458,26.688,24.76,14.597,33.639,26.688z"/>
	<line fill="none" x1="47.328" y1="13.248" x2="49.974" y2="13.248"/>
	<line fill="none" x1="0" y1="13.248" x2="2.646" y2="13.248"/>
	<rect id="out_6_" x="0" fill="none" width="50" height="50"/>
</g>
<g id="object2">
	<path fill="#DA3D4E" stroke="#000000" d="M20.175,9.86C9.95,6.491,17.447,0.589,17.447,0.589
		c-9.33,4.506,0.204,12.775,0.204,12.775s1.312,1.293,2.146,0.948c0.834-0.347,2.389-4.132,2.389-4.132L20.175,9.86"/>
	<path fill="#DA3D4E" stroke="#000000" d="M29.77,9.829c10.226-3.366,2.729-9.27,2.729-9.27c9.329,4.506-0.207,12.774-0.207,12.774
		l-1.686,1.017l-2.603-4.4L29.77,9.829"/>
	<path fill="#5F8960" stroke="#000000" d="M36.277,38.994c0,0,7.948-1.645,11.309,9.199c0,0-5.383-13.752-8.884-15.525"/>
	<path fill="#5F8960" stroke="#000000" d="M38.977,25.319c0,0,3.796-11.484,11.264-9.907c0,0-10.123-0.506-13.067,3.163"/>
	<path fill="#5F8960" stroke="#000000" d="M11.023,25.322c0,0-3.795-11.488-11.269-9.91c0,0,10.125-0.506,13.067,3.163"/>
	<path fill="#5F8960" stroke="#000000" d="M13.723,38.997c0,0-7.948-1.647-11.312,9.2c0,0,5.382-13.754,8.883-15.529"/>
	<ellipse fill="#36962A" stroke="#000000" cx="25" cy="26.878" rx="14.961" ry="17.783"/>
	<path fill="#DBD62E" stroke="#000000" d="M18.885,19.378c3.383-4.247,8.854-4.247,12.23,0c3.371,4.247,3.371,11.138,0,15.382
		c-3.379,4.246-8.852,4.246-12.23,0C15.511,30.516,15.511,23.625,18.885,19.378z"/>
	<path fill="#010101" stroke="#000000" d="M22.384,23.778c1.445-1.819,3.787-1.819,5.232,0c1.447,1.818,1.447,4.761,0,6.583
		c-1.445,1.82-3.788,1.82-5.232,0C20.937,28.542,20.937,25.6,22.384,23.778z"/>
	<path fill="#5F8960" stroke="#000000" d="M16.458,26.791c0,0,0.02,10.039,8.42,10.879c0,0,8.414,0.391,8.766-10.879H16.458z"/>
	<path fill="#5F8960" stroke="#000000" d="M33.639,26.688c0,0-0.021-10.042-8.427-10.875c0,0-8.415-0.392-8.759,10.875
		C16.458,26.688,24.76,14.597,33.639,26.688z"/>
	<line fill="none" x1="47.328" y1="13.248" x2="49.974" y2="13.248"/>
	<line fill="none" x1="0" y1="13.248" x2="2.646" y2="13.248"/>
	<rect id="out_3_" x="0" fill="none" width="50" height="50"/>
</g>
<g id="object3">
	<path fill="#DA3D4E" stroke="#000000" d="M19.327,9.645C10.871,2.982,19.934,0,19.934,0c-10.312,1.043-4.182,12.075-4.182,12.075
		s0.791,1.664,1.692,1.624c0.902-0.04,3.653-3.067,3.653-3.067L19.327,9.645"/>
	<path fill="#DA3D4E" stroke="#000000" d="M30.628,9.643C39.086,2.983,30.022,0,30.022,0c10.307,1.042,4.174,12.074,4.174,12.074
		l-1.236,1.532l-3.942-3.246L30.628,9.643"/>
	<path fill="#5F8960" stroke="#000000" d="M35.316,37.486c0,0,8.031,1.174,7.479,12.514c0,0-0.354-14.764-3.037-17.628"/>
	<path fill="#5F8960" stroke="#000000" d="M40.132,26.262c0,0-0.356-12.09,7.196-13.161c0,0-9.686,2.986-11.197,7.441"/>
	<path fill="#5F8960" stroke="#000000" d="M9.868,26.266c0,0,0.363-12.094-7.196-13.165c0,0,9.688,2.986,11.198,7.441"/>
	<path fill="#5F8960" stroke="#000000" d="M14.684,37.488c0,0-8.032,1.172-7.479,12.514c0,0,0.354-14.766,3.036-17.63"/>
	<ellipse fill="#36962A" stroke="#000000" cx="25" cy="26.878" rx="14.961" ry="17.783"/>
	<path fill="#DBD62E" stroke="#000000" d="M18.885,19.378c3.383-4.247,8.854-4.247,12.23,0c3.371,4.247,3.371,11.138,0,15.382
		c-3.379,4.246-8.852,4.246-12.23,0C15.511,30.516,15.511,23.625,18.885,19.378z"/>
	<path fill="#010101" stroke="#000000" d="M22.384,23.778c1.445-1.819,3.787-1.819,5.232,0c1.447,1.818,1.447,4.761,0,6.583
		c-1.445,1.82-3.788,1.82-5.232,0C20.937,28.542,20.937,25.6,22.384,23.778z"/>
	<path fill="#5F8960" stroke="#000000" d="M16.458,26.791c0,0,0.02,10.039,8.42,10.879c0,0,8.414,0.391,8.766-10.879H16.458z"/>
	<path fill="#5F8960" stroke="#000000" d="M33.639,26.688c0,0-0.021-10.042-8.427-10.875c0,0-8.415-0.392-8.759,10.875
		C16.458,26.688,24.76,14.597,33.639,26.688z"/>
	<line fill="none" x1="47.328" y1="13.248" x2="49.974" y2="13.248"/>
	<line fill="none" x1="0" y1="13.248" x2="2.646" y2="13.248"/>
	<rect id="out_1_" x="0" fill="none" width="50" height="50"/>
</g>
<g id="object4">
	<path fill="#DA3D4E" stroke="#000000" d="M19.327,9.645C10.871,2.982,19.934,0,19.934,0c-10.312,1.043-4.182,12.075-4.182,12.075
		s0.791,1.664,1.692,1.624c0.902-0.04,3.653-3.067,3.653-3.067L19.327,9.645"/>
	<path fill="#DA3D4E" stroke="#000000" d="M30.628,9.643C39.086,2.983,30.022,0,30.022,0c10.307,1.042,4.174,12.074,4.174,12.074
		l-1.236,1.532l-3.942-3.246L30.628,9.643"/>
	<path fill="#5F8960" stroke="#000000" d="M35.316,37.486c0,0,8.031,1.174,7.479,12.514c0,0-0.354-14.764-3.037-17.628"/>
	<path fill="#5F8960" stroke="#000000" d="M40.132,26.262c0,0-0.356-12.09,7.196-13.161c0,0-9.686,2.986-11.197,7.441"/>
	<path fill="#5F8960" stroke="#000000" d="M9.868,26.266c0,0,0.363-12.094-7.196-13.165c0,0,9.688,2.986,11.198,7.441"/>
	<path fill="#5F8960" stroke="#000000" d="M14.684,37.488c0,0-8.032,1.172-7.479,12.514c0,0,0.354-14.766,3.036-17.63"/>
	<ellipse fill="#36962A" stroke="#000000" cx="25" cy="26.878" rx="14.961" ry="17.783"/>
	<path fill="#DBD62E" stroke="#000000" d="M18.885,19.378c3.383-4.247,8.854-4.247,12.23,0c3.371,4.247,3.371,11.138,0,15.382
		c-3.379,4.246-8.852,4.246-12.23,0C15.511,30.516,15.511,23.625,18.885,19.378z"/>
	<path fill="#010101" stroke="#000000" d="M22.384,23.778c1.445-1.819,3.787-1.819,5.232,0c1.447,1.818,1.447,4.761,0,6.583
		c-1.445,1.82-3.788,1.82-5.232,0C20.937,28.542,20.937,25.6,22.384,23.778z"/>
	<path fill="#5F8960" stroke="#000000" d="M16.458,26.791c0,0,0.02,10.039,8.42,10.879c0,0,8.414,0.391,8.766-10.879H16.458z"/>
	<path fill="#5F8960" stroke="#000000" d="M33.639,26.688c0,0-0.021-10.042-8.427-10.875c0,0-8.415-0.392-8.759,10.875
		C16.458,26.688,24.76,14.597,33.639,26.688z"/>
	<line fill="none" x1="47.328" y1="13.248" x2="49.974" y2="13.248"/>
	<line fill="none" x1="0" y1="13.248" x2="2.646" y2="13.248"/>
	<rect id="out_2_" x="0" fill="none" width="50" height="50"/>
</g>
<g id="occhi1">
	<path fill="none" d="M19.327,9.645C10.871,2.982,19.934,0,19.934,0c-10.312,1.043-4.182,12.075-4.182,12.075
		s0.791,1.664,1.692,1.624c0.902-0.04,3.653-3.067,3.653-3.067L19.327,9.645"/>
	<path fill="none" d="M30.628,9.643C39.086,2.983,30.022,0,30.022,0c10.307,1.042,4.174,12.074,4.174,12.074l-1.236,1.532
		l-3.942-3.246L30.628,9.643"/>
	<path fill="none" d="M35.316,37.486c0,0,8.031,1.174,7.479,12.514c0,0-0.354-14.764-3.037-17.628"/>
	<path fill="none" d="M40.132,26.262c0,0-0.356-12.09,7.196-13.161c0,0-9.686,2.986-11.197,7.441"/>
	<path fill="none" d="M9.868,26.266c0,0,0.363-12.094-7.196-13.165c0,0,9.688,2.986,11.198,7.441"/>
	<path fill="none" d="M14.684,37.488c0,0-8.032,1.172-7.479,12.514c0,0,0.354-14.766,3.036-17.63"/>
	<path fill="none" d="M16.458,26.791c0,0,0.02,10.039,8.42,10.879c0,0,8.414,0.391,8.766-10.879H16.458z"/>
	<path fill="none" d="M33.64,26.672c-0.352-11.27-8.766-10.879-8.766-10.879c-8.4,0.84-8.42,10.879-8.42,10.879H33.64z"/>
	<line fill="none" x1="47.328" y1="13.248" x2="49.974" y2="13.248"/>
	<line fill="none" x1="0" y1="13.248" x2="2.646" y2="13.248"/>
	<rect id="out_4_" x="0" fill="none" width="50" height="50"/>
</g>
<g id="occhi2">
	<path fill="none" d="M19.327,9.645C10.871,2.982,19.934,0,19.934,0c-10.312,1.043-4.182,12.075-4.182,12.075
		s0.791,1.664,1.692,1.624c0.902-0.04,3.653-3.067,3.653-3.067L19.327,9.645"/>
	<path fill="none" d="M30.628,9.643C39.086,2.983,30.022,0,30.022,0c10.307,1.042,4.174,12.074,4.174,12.074l-1.236,1.532
		l-3.942-3.246L30.628,9.643"/>
	<path fill="none" d="M35.316,37.486c0,0,8.031,1.174,7.479,12.514c0,0-0.354-14.764-3.037-17.628"/>
	<path fill="none" d="M40.132,26.262c0,0-0.356-12.09,7.196-13.161c0,0-9.686,2.986-11.197,7.441"/>
	<path fill="none" d="M9.868,26.266c0,0,0.363-12.094-7.196-13.165c0,0,9.688,2.986,11.198,7.441"/>
	<path fill="none" d="M14.684,37.488c0,0-8.032,1.172-7.479,12.514c0,0,0.354-14.766,3.036-17.63"/>
	<path fill="none" d="M16.458,26.791c0,0,0.02,10.039,8.42,10.879c0,0,8.414,0.391,8.766-10.879H16.458z"/>
	<path fill="none" d="M33.64,26.672c-0.352-11.27-8.766-10.879-8.766-10.879c-8.4,0.84-8.42,10.879-8.42,10.879H33.64z"/>
	<line fill="none" x1="47.328" y1="13.248" x2="49.974" y2="13.248"/>
	<line fill="none" x1="0" y1="13.248" x2="2.646" y2="13.248"/>
	<rect id="out_5_" x="0" fill="none" width="50" height="50"/>
</g>
<g id="occhi3">
	<path fill="none" d="M19.327,9.645C10.871,2.982,19.934,0,19.934,0c-10.312,1.043-4.182,12.075-4.182,12.075
		s0.791,1.664,1.692,1.624c0.902-0.04,3.653-3.067,3.653-3.067L19.327,9.645"/>
	<path fill="none" d="M30.628,9.643C39.086,2.983,30.022,0,30.022,0c10.307,1.042,4.174,12.074,4.174,12.074l-1.236,1.532
		l-3.942-3.246L30.628,9.643"/>
	<path fill="none" d="M35.316,37.486c0,0,8.031,1.174,7.479,12.514c0,0-0.354-14.764-3.037-17.628"/>
	<path fill="none" d="M40.132,26.262c0,0-0.356-12.09,7.196-13.161c0,0-9.686,2.986-11.197,7.441"/>
	<path fill="none" d="M9.868,26.266c0,0,0.363-12.094-7.196-13.165c0,0,9.688,2.986,11.198,7.441"/>
	<path fill="none" d="M14.684,37.488c0,0-8.032,1.172-7.479,12.514c0,0,0.354-14.766,3.036-17.63"/>
	<path fill="none" d="M16.458,26.791c0,0,0.02,10.039,8.42,10.879c0,0,8.414,0.391,8.766-10.879H16.458z"/>
	<path fill="none" d="M33.64,26.672c-0.352-11.27-8.766-10.879-8.766-10.879c-8.4,0.84-8.42,10.879-8.42,10.879H33.64z"/>
	<line fill="none" x1="47.328" y1="13.248" x2="49.974" y2="13.248"/>
	<line fill="none" x1="0" y1="13.248" x2="2.646" y2="13.248"/>
	<rect id="out_7_" x="0" fill="none" width="50" height="50"/>
</g>
<g id="occhi4">
	<path fill="none" d="M19.327,9.645C10.871,2.982,19.934,0,19.934,0c-10.312,1.043-4.182,12.075-4.182,12.075
		s0.791,1.664,1.692,1.624c0.902-0.04,3.653-3.067,3.653-3.067L19.327,9.645"/>
	<path fill="none" d="M30.628,9.643C39.086,2.983,30.022,0,30.022,0c10.307,1.042,4.174,12.074,4.174,12.074l-1.236,1.532
		l-3.942-3.246L30.628,9.643"/>
	<path fill="none" d="M35.316,37.486c0,0,8.031,1.174,7.479,12.514c0,0-0.354-14.764-3.037-17.628"/>
	<path fill="none" d="M40.132,26.262c0,0-0.356-12.09,7.196-13.161c0,0-9.686,2.986-11.197,7.441"/>
	<path fill="none" d="M9.868,26.266c0,0,0.363-12.094-7.196-13.165c0,0,9.688,2.986,11.198,7.441"/>
	<path fill="none" d="M14.684,37.488c0,0-8.032,1.172-7.479,12.514c0,0,0.354-14.766,3.036-17.63"/>
	<path fill="#5F8960" stroke="#000000" d="M16.458,26.791c0,0,0.02,10.039,8.42,10.879c0,0,8.414,0.391,8.766-10.879H16.458z"/>
	<path fill="#5F8960" stroke="#000000" d="M33.64,26.672c-0.352-11.27-8.766-10.879-8.766-10.879c-8.4,0.84-8.42,10.879-8.42,10.879
		H33.64z"/>
	<line fill="none" x1="47.328" y1="13.248" x2="49.974" y2="13.248"/>
	<line fill="none" x1="0" y1="13.248" x2="2.646" y2="13.248"/>
	<rect id="out_10_" x="0" fill="none" width="50" height="50"/>
</g>
<g id="occhi5">
	<path fill="none" d="M19.327,9.645C10.871,2.982,19.934,0,19.934,0c-10.312,1.043-4.182,12.075-4.182,12.075
		s0.791,1.664,1.692,1.624c0.902-0.04,3.653-3.067,3.653-3.067L19.327,9.645"/>
	<path fill="none" d="M30.628,9.643C39.086,2.983,30.022,0,30.022,0c10.307,1.042,4.174,12.074,4.174,12.074l-1.236,1.532
		l-3.942-3.246L30.628,9.643"/>
	<path fill="none" d="M35.316,37.486c0,0,8.031,1.174,7.479,12.514c0,0-0.354-14.764-3.037-17.628"/>
	<path fill="none" d="M40.132,26.262c0,0-0.356-12.09,7.196-13.161c0,0-9.686,2.986-11.197,7.441"/>
	<path fill="none" d="M9.868,26.266c0,0,0.363-12.094-7.196-13.165c0,0,9.688,2.986,11.198,7.441"/>
	<path fill="none" d="M14.684,37.488c0,0-8.032,1.172-7.479,12.514c0,0,0.354-14.766,3.036-17.63"/>
	<path fill="#5F8960" stroke="#000000" d="M16.458,26.791c0,0,0.02,10.039,8.42,10.879c0,0,8.414,0.391,8.766-10.879H16.458z"/>
	<path fill="#5F8960" stroke="#000000" d="M33.64,26.672c-0.352-11.27-8.766-10.879-8.766-10.879c-8.4,0.84-8.42,10.879-8.42,10.879
		H33.64z"/>
	<line fill="none" x1="47.328" y1="13.248" x2="49.974" y2="13.248"/>
	<line fill="none" x1="0" y1="13.248" x2="2.646" y2="13.248"/>
	<rect id="out_9_" x="0" fill="none" width="50" height="50"/>
</g>
<g id="occhi6">
	<path fill="none" d="M19.327,9.645C10.871,2.982,19.934,0,19.934,0c-10.312,1.043-4.182,12.075-4.182,12.075
		s0.791,1.664,1.692,1.624c0.902-0.04,3.653-3.067,3.653-3.067L19.327,9.645"/>
	<path fill="none" d="M30.628,9.643C39.086,2.983,30.022,0,30.022,0c10.307,1.042,4.174,12.074,4.174,12.074l-1.236,1.532
		l-3.942-3.246L30.628,9.643"/>
	<path fill="none" d="M35.316,37.486c0,0,8.031,1.174,7.479,12.514c0,0-0.354-14.764-3.037-17.628"/>
	<path fill="none" d="M40.132,26.262c0,0-0.356-12.09,7.196-13.161c0,0-9.686,2.986-11.197,7.441"/>
	<path fill="none" d="M9.868,26.266c0,0,0.363-12.094-7.196-13.165c0,0,9.688,2.986,11.198,7.441"/>
	<path fill="none" d="M14.684,37.488c0,0-8.032,1.172-7.479,12.514c0,0,0.354-14.766,3.036-17.63"/>
	<path fill="#5F8960" stroke="#000000" d="M16.458,26.791c0,0,0.02,10.039,8.42,10.879c0,0,8.414,0.391,8.766-10.879H16.458z"/>
	<path fill="#5F8960" stroke="#000000" d="M33.64,26.672c-0.352-11.27-8.766-10.879-8.766-10.879c-8.4,0.84-8.42,10.879-8.42,10.879
		H33.64z"/>
	<line fill="none" x1="47.328" y1="13.248" x2="49.974" y2="13.248"/>
	<line fill="none" x1="0" y1="13.248" x2="2.646" y2="13.248"/>
	<rect id="out_8_" x="0" fill="none" width="50" height="50"/>
</g>
<g id="occhi7">
	<path fill="none" d="M19.327,9.645C10.871,2.982,19.934,0,19.934,0c-10.312,1.043-4.182,12.075-4.182,12.075
		s0.791,1.664,1.692,1.624c0.902-0.04,3.653-3.067,3.653-3.067L19.327,9.645"/>
	<path fill="none" d="M30.628,9.643C39.086,2.983,30.022,0,30.022,0c10.307,1.042,4.174,12.074,4.174,12.074l-1.236,1.532
		l-3.942-3.246L30.628,9.643"/>
	<path fill="none" d="M35.316,37.486c0,0,8.031,1.174,7.479,12.514c0,0-0.354-14.764-3.037-17.628"/>
	<path fill="none" d="M40.132,26.262c0,0-0.356-12.09,7.196-13.161c0,0-9.686,2.986-11.197,7.441"/>
	<path fill="none" d="M9.868,26.266c0,0,0.363-12.094-7.196-13.165c0,0,9.688,2.986,11.198,7.441"/>
	<path fill="none" d="M14.684,37.488c0,0-8.032,1.172-7.479,12.514c0,0,0.354-14.766,3.036-17.63"/>
	<path fill="none" d="M16.458,26.791c0,0,0.02,10.039,8.42,10.879c0,0,8.414,0.391,8.766-10.879H16.458z"/>
	<path fill="none" d="M33.64,26.672c-0.352-11.27-8.766-10.879-8.766-10.879c-8.4,0.84-8.42,10.879-8.42,10.879H33.64z"/>
	<line fill="none" x1="47.328" y1="13.248" x2="49.974" y2="13.248"/>
	<line fill="none" x1="0" y1="13.248" x2="2.646" y2="13.248"/>
	<rect id="out_13_" x="0" fill="none" width="50" height="50"/>
</g>
<g id="occhi8">
	<path fill="none" d="M19.327,9.645C10.871,2.982,19.934,0,19.934,0c-10.312,1.043-4.182,12.075-4.182,12.075
		s0.791,1.664,1.692,1.624c0.902-0.04,3.653-3.067,3.653-3.067L19.327,9.645"/>
	<path fill="none" d="M30.628,9.643C39.086,2.983,30.022,0,30.022,0c10.307,1.042,4.174,12.074,4.174,12.074l-1.236,1.532
		l-3.942-3.246L30.628,9.643"/>
	<path fill="none" d="M35.316,37.486c0,0,8.031,1.174,7.479,12.514c0,0-0.354-14.764-3.037-17.628"/>
	<path fill="none" d="M40.132,26.262c0,0-0.356-12.09,7.196-13.161c0,0-9.686,2.986-11.197,7.441"/>
	<path fill="none" d="M9.868,26.266c0,0,0.363-12.094-7.196-13.165c0,0,9.688,2.986,11.198,7.441"/>
	<path fill="none" d="M14.684,37.488c0,0-8.032,1.172-7.479,12.514c0,0,0.354-14.766,3.036-17.63"/>
	<path fill="none" d="M16.458,26.791c0,0,0.02,10.039,8.42,10.879c0,0,8.414,0.391,8.766-10.879H16.458z"/>
	<path fill="none" d="M33.64,26.672c-0.352-11.27-8.766-10.879-8.766-10.879c-8.4,0.84-8.42,10.879-8.42,10.879H33.64z"/>
	<line fill="none" x1="47.328" y1="13.248" x2="49.974" y2="13.248"/>
	<line fill="none" x1="0" y1="13.248" x2="2.646" y2="13.248"/>
	<rect id="out_12_" x="0" fill="none" width="50" height="50"/>
</g>
<g id="occhi9">
	<path fill="none" d="M19.327,9.645C10.871,2.982,19.934,0,19.934,0c-10.312,1.043-4.182,12.075-4.182,12.075
		s0.791,1.664,1.692,1.624c0.902-0.04,3.653-3.067,3.653-3.067L19.327,9.645"/>
	<path fill="none" d="M30.628,9.643C39.086,2.983,30.022,0,30.022,0c10.307,1.042,4.174,12.074,4.174,12.074l-1.236,1.532
		l-3.942-3.246L30.628,9.643"/>
	<path fill="none" d="M35.316,37.486c0,0,8.031,1.174,7.479,12.514c0,0-0.354-14.764-3.037-17.628"/>
	<path fill="none" d="M40.132,26.262c0,0-0.356-12.09,7.196-13.161c0,0-9.686,2.986-11.197,7.441"/>
	<path fill="none" d="M9.868,26.266c0,0,0.363-12.094-7.196-13.165c0,0,9.688,2.986,11.198,7.441"/>
	<path fill="none" d="M14.684,37.488c0,0-8.032,1.172-7.479,12.514c0,0,0.354-14.766,3.036-17.63"/>
	<path fill="none" d="M16.458,26.791c0,0,0.02,10.039,8.42,10.879c0,0,8.414,0.391,8.766-10.879H16.458z"/>
	<path fill="none" d="M33.64,26.672c-0.352-11.27-8.766-10.879-8.766-10.879c-8.4,0.84-8.42,10.879-8.42,10.879H33.64z"/>
	<line fill="none" x1="47.328" y1="13.248" x2="49.974" y2="13.248"/>
	<line fill="none" x1="0" y1="13.248" x2="2.646" y2="13.248"/>
	<rect id="out_11_" x="0" fill="none" width="50" height="50"/>
</g>
<path id="outline" fill="none" d="M35.316,11.832l3.017,3.979L50,13.999l-8.271,9.833l-1.062,7.895L50,50h-9.167l-4.702-9.569
	c-11.036,12.432-24.131,0-24.131,0L8.499,50H0l9.167-18.273l-0.896-9.313L0,13.248l10.931,2.543l3.013-2.69
	C7.722,3.37,15.334,0,15.334,0h6c-9,4.168-1.167,9.095-1.167,9.095c1.388-1.611,8.851-0.763,8.851-0.763C36.701,4.666,28.5,0,28.5,0
	h6.333C40.833,5.501,35.316,11.832,35.316,11.832z"/>
</svg>
