<?xml version="1.0" encoding="utf-8"?>
<!-- Generator: Adobe Illustrator 14.0.0, SVG Export Plug-In . SVG Version: 6.00 Build 43363)  -->
<!DOCTYPE svg PUBLIC "-//W3C//DTD SVG 1.1//EN" "http://www.w3.org/Graphics/SVG/1.1/DTD/svg11.dtd">
<svg version="1.1" id="Livello_1" xmlns="http://www.w3.org/2000/svg" xmlns:xlink="http://www.w3.org/1999/xlink" x="0px" y="0px"
	 width="50px" height="50px" viewBox="0 0 50 50" enable-background="new 0 0 50 50" xml:space="preserve">
<rect id="outline" x="1" y="0.082" fill="none" width="47.406" height="49.918"/>
<g id="object1">
	<path fill="#D68BB7" stroke="#000000" d="M1.027,7.758c-0.211-1.408,0.89-3.502,0.89-3.502c3.354,5.588,13.497,1.526,13.497,1.526
		c0.714,1.704,0,3.956,0,3.956s-1.75,5.602-7.055,5.352C8.359,15.09,1.63,15.043,1.027,7.758"/>
	<path fill="#D68BB7" stroke="#000000" d="M48.369,7.758c-0.604,7.285-7.332,7.332-7.332,7.332c-5.305,0.25-7.055-5.352-7.055-5.352
		s-0.715-2.252,0-3.956c0,0,10.143,4.062,13.496-1.526C47.478,4.256,48.58,6.35,48.369,7.758"/>
</g>
<g id="object2">
	<circle fill="#D68BB7" stroke="#000000" cx="41.052" cy="7.758" r="7.332"/>
	<circle fill="#D68BB7" stroke="#000000" cx="8.379" cy="7.758" r="7.332"/>
</g>
<g id="object3">
	<path fill="#D68BB7" stroke="#000000" d="M1.027,7.758c-0.211-1.408,0.89-3.502,0.89-3.502c3.354,5.588,13.497,1.526,13.497,1.526
		c0.714,1.704,0,3.956,0,3.956s-1.75,5.602-7.055,5.352C8.359,15.09,1.63,15.043,1.027,7.758"/>
	<path fill="#D68BB7" stroke="#000000" d="M48.369,7.758c-0.604,7.285-7.332,7.332-7.332,7.332c-5.305,0.25-7.055-5.352-7.055-5.352
		s-0.715-2.252,0-3.956c0,0,10.143,4.062,13.496-1.526C47.478,4.256,48.58,6.35,48.369,7.758"/>
</g>
</svg>
