<?xml version="1.0" encoding="utf-8"?>
<!-- Generator: Adobe Illustrator 14.0.0, SVG Export Plug-In . SVG Version: 6.00 Build 43363)  -->
<!DOCTYPE svg PUBLIC "-//W3C//DTD SVG 1.1//EN" "http://www.w3.org/Graphics/SVG/1.1/DTD/svg11.dtd">
<svg version="1.1" id="Livello1" xmlns="http://www.w3.org/2000/svg" xmlns:xlink="http://www.w3.org/1999/xlink" x="0px" y="0px"
	 width="50px" height="50px" viewBox="0 0 50 50" enable-background="new 0 0 50 50" xml:space="preserve">
<rect x="0" fill="#FFFFFF" stroke="#000000" width="50" height="50"/>
<g id="object2">
	<path fill="#D68BB7" stroke="#000000" d="M30.07,32.953C25.331,36.725,24.595,50,24.595,50
		c-0.231-16.117-5.551-17.234-5.551-17.234s-15.708-1.1-16.937-9.333c0,0-4.029-15.416,20.494-15.416h4.432
		c24.524,0,20.495,15.416,20.495,15.416c-1.042,7.006-12.575,8.846-15.988,9.237L30.07,32.953z"/>
	<circle fill="#FFFFFF" stroke="#000000" cx="41.108" cy="8.878" r="7.331"/>
	<circle fill="#010101" stroke="#000000" cx="41.108" cy="5.375" r="3.873"/>
	<path fill="#D68BB7" stroke="#000000" d="M48.439,8.877c0,0-5.55,4.062-14.385,1.98c0,0,1.75,5.602,7.054,5.352
		C41.108,16.209,47.839,16.162,48.439,8.877z"/>
	<circle fill="#FFFFFF" stroke="#000000" cx="8.436" cy="8.878" r="7.331"/>
	<circle fill="#010101" stroke="#000000" cx="8.436" cy="5.375" r="3.873"/>
	<path fill="#D68BB7" stroke="#000000" d="M1.104,8.877c0,0,5.552,4.062,14.388,1.98c0,0-1.75,5.602-7.056,5.352
		C8.436,16.209,1.707,16.162,1.104,8.877z"/>
	<line fill="none" stroke="#000000" x1="29.711" y1="10.894" x2="28.717" y2="9.58"/>
	<line fill="none" stroke="#000000" x1="20.309" y1="10.894" x2="21.301" y2="9.58"/>
</g>
</svg>
